# xmcd
#
# Track frame offsets:
#	150
#	9094
#	24734
#	36436
#	51016
#	82826
#	107724
#	127312
#	156872
#	167115
#	175699
#	202191
#	231688
#	264910
#	297509
#	310457
#	320961
#
# Disc length: 4463 seconds
#
# Revision: 0
# Processed by: cddbd v1.5.2PL0 Copyright (c) Steve Scherf et al.
# Submitted via: EasyCDDAExtractor 4.6.0.1
#
DISCID=f9116d11
DTITLE=Mv Mettenheim - Sommer 2007
DYEAR=2007
DGENRE=
TTITLE0=Musik ist Trumpf
TTITLE1=Lilo and Stitch1
TTITLE2=Lilo and Stitch2
TTITLE3=Ciribimbi
TTITLE4=A visit to Gershwin
TTITLE5=Hurra Hurra
TTITLE6=Just a Gigolo
TTITLE7=Highlights from Cats
TTITLE8=A String of Pearls
TTITLE9=Die Maus
TTITLE10=Grease
TTITLE11=West Side Story
TTITLE12=Henry Mancini Portrait
TTITLE13=My fair Lady
TTITLE14=Basin' Street Blues
TTITLE15=Pensilvania 65000
TTITLE16=Chatenooga Chu Chu
EXTD=
EXTT0=
EXTT1=
EXTT2=
EXTT3=
EXTT4=
EXTT5=
EXTT6=
EXTT7=
EXTT8=
EXTT9=
EXTT10=
EXTT11=
EXTT12=
EXTT13=
EXTT14=
EXTT15=
EXTT16=
PLAYORDER=
